<svg xmlns="http://www.w3.org/2000/svg" id="Layer_2" data-name="Layer 2" viewBox="0 0 1013.39 198.13"><defs><style> .cls-1 { fill: #69bbdc; } .cls-2 { fill: #010101; } .cls-3 { fill: #64696f; } .cls-4 { fill: #facd2a; } </style></defs><g id="Layer_2-2" data-name="Layer 2"><g id="Layer_1-2" data-name="Layer 1-2"><g><polygon class="cls-3" points="490.39 0 465.89 0 465.89 117.23 373.17 117.23 373.17 0 348.66 0 348.66 141.73 490.39 141.73 490.39 0"></polygon><path class="cls-3" d="M291.56,24.5v64.42l-28.31,28.31h-64.41V24.5h92.72ZM316.06,0h-141.73v141.73h100.42l41.31-41.31V0Z"></path><path class="cls-1" d="M988.89,24.5v64.42l-28.31,28.31h-64.41V24.5h92.72ZM1013.39,0h-141.73v141.73h100.42l41.31-41.31V0Z"></path><path class="cls-1" d="M697.32,0v141.73h141.73V0h-141.73ZM814.55,117.23h-92.72V24.51h92.72v92.72h0Z"></path><path class="cls-1" d="M522.99,0v141.73h24.5V24.5h92.73v39.85h-94.57v24.51h119.07V0h-141.73Z"></path><polygon class="cls-4" points="141.73 0 141.73 99.94 99.76 141.73 0 141.73 0 0 141.73 0"></polygon><path class="cls-2" d="M532.58,168.8h2.35l10.67,28.81h-3.06l-2.56-7.39h-12.43l-2.6,7.39h-3.06l10.7-28.81h-.01ZM539.07,187.8l-5.33-15.08-5.28,15.08h10.61Z"></path><path class="cls-2" d="M571.57,168.8v28.81h-3.06l-14.31-24.04v24.04h-2.77v-28.81h3.01l14.37,24.04v-24.04h2.76Z"></path><path class="cls-2" d="M822.21,196.04c-1.97-1.25-3.52-3.08-4.44-5.23-1.03-2.43-1.53-5.05-1.48-7.68-.05-2.62.45-5.22,1.48-7.62.93-2.14,2.5-3.94,4.48-5.16,2.21-1.29,4.73-1.94,7.29-1.86,5.86,0,9.8,2.59,11.82,7.76l-2.6.99c-.64-1.83-1.82-3.42-3.39-4.56-1.49-1.03-3.43-1.55-5.82-1.55-3.44,0-6.05,1.06-7.81,3.18s-2.64,5.05-2.64,8.8.85,6.54,2.54,8.8,4.26,3.38,7.7,3.37c4.6,0,7.74-2.08,9.42-6.24l2.64,1c-3.08,6.78-11.07,9.79-17.86,6.71-.46-.21-.9-.44-1.33-.7h0Z"></path><path class="cls-2" d="M851.41,195.92c-1.97-1.32-3.52-3.17-4.46-5.35-1.99-4.71-1.99-10.03,0-14.74.94-2.17,2.49-4.03,4.46-5.35,4.42-2.67,9.96-2.67,14.37,0,1.97,1.32,3.52,3.17,4.46,5.35,1.98,4.72,1.98,10.03,0,14.74-.94,2.18-2.49,4.03-4.46,5.35-4.42,2.67-9.96,2.67-14.37,0ZM864.31,193.65c1.57-1.06,2.8-2.56,3.52-4.32,1.55-3.93,1.55-8.31,0-12.24-.72-1.76-1.94-3.27-3.52-4.34-3.51-2.12-7.91-2.12-11.42,0-1.56,1.08-2.76,2.59-3.47,4.34-1.54,3.94-1.54,8.31,0,12.24,1.47,3.74,5.16,6.12,9.18,5.93,2.03.06,4.02-.5,5.72-1.61h-.01Z"></path><path class="cls-2" d="M906.07,168.8v28.81h-2.81v-25.13l-9.46,22.72h-2.73l-9.49-22.84v25.22h-2.77v-28.77h4.05l9.58,23.17,9.52-23.17h4.11Z"></path><path class="cls-2" d="M915.02,168.8h8.09c3.13,0,5.49.7,7.08,2.11,1.6,1.41,2.4,3.39,2.42,5.95,0,2.62-.83,4.63-2.48,6.03-1.65,1.41-3.99,2.11-7.04,2.11h-5.3v12.61h-2.76l-.02-28.81h0ZM922.87,182.39c2.26,0,3.98-.46,5.16-1.37,1.17-.91,1.76-2.28,1.76-4.11s-.59-3.23-1.79-4.15-2.93-1.38-5.14-1.38h-5.05v11.03l5.07-.02h-.01Z"></path><path class="cls-2" d="M944.01,168.8h2.31l10.7,28.81h-3.06l-2.56-7.39h-12.43l-2.6,7.39h-3.06l10.7-28.81h0ZM950.47,187.8l-5.32-15.08-5.28,15.08h10.6Z"></path><path class="cls-2" d="M983,168.8v28.81h-3.04l-14.33-24.04v24.04h-2.77v-28.81h3.03l14.37,24.04v-24.04h2.74Z"></path><path class="cls-2" d="M999.56,186.56l-11.03-17.76h3.3l9.05,15.04,9.17-15.04h3.34l-11.03,17.76v11.04h-2.77l-.03-11.04h0Z"></path><path class="cls-2" d="M601.99,168.34l-13.59,29.75h4.55l3.23-7.46h15.01l3.09,7.46h11.14l-12.84-29.75h-10.59,0ZM603.86,172.91l5.86,14.24h-12.06l6.19-14.24h.01Z"></path><path class="cls-2" d="M690.04,168.34l-13.59,29.75h4.55l3.23-7.46h15l3.1,7.46h11.14l-12.84-29.75h-10.59,0ZM691.91,172.91l5.86,14.24h-12.06l6.19-14.24h.01Z"></path><path class="cls-2" d="M767.55,168.34l-13.58,29.75h4.54l3.23-7.46h15.01l3.09,7.46h11.14l-12.84-29.75h-10.59,0ZM769.42,172.91l5.86,14.24h-12.06l6.19-14.24h.01Z"></path><path class="cls-2" d="M800.91,187.57c-2.91,0-5.28,2.36-5.28,5.28s2.36,5.28,5.28,5.28,5.28-2.36,5.28-5.28-2.36-5.28-5.28-5.28Z"></path><polygon class="cls-2" points="651.37 191.74 641.13 168.34 630.1 168.34 630.1 198.09 633.91 198.09 633.91 176.98 642.72 198.09 652.5 198.09 661.27 176.98 661.27 198.09 671.78 198.09 671.78 168.34 661.27 168.34 651.37 191.74"></polygon><polygon class="cls-2" points="745.53 190.92 729.32 168.34 718.13 168.34 718.13 198.09 721.94 198.09 721.94 175.41 738.28 198.09 749.3 198.09 749.3 168.34 745.53 168.34 745.53 190.92"></polygon></g></g></g></svg>